<?xml version="1.0" encoding="UTF-8" standalone="no"?>
<svg
   xmlns:dc="http://purl.org/dc/elements/1.1/"
   xmlns:cc="http://creativecommons.org/ns#"
   xmlns:rdf="http://www.w3.org/1999/02/22-rdf-syntax-ns#"
   xmlns:svg="http://www.w3.org/2000/svg"
   xmlns="http://www.w3.org/2000/svg"
   xmlns:sodipodi="http://sodipodi.sourceforge.net/DTD/sodipodi-0.dtd"
   xmlns:inkscape="http://www.inkscape.org/namespaces/inkscape"
   inkscape:version="1.0 (4035a4fb49, 2020-05-01)"
   sodipodi:docname="misskey.svg"
   id="svg85"
   style="fill-rule:evenodd;clip-rule:evenodd;stroke-linejoin:round;stroke-miterlimit:2;"
   xml:space="preserve"
   version="1.1"
   height="136px"
   width="515px"><metadata
   id="metadata38"><rdf:RDF><cc:Work
       rdf:about=""><dc:format>image/svg+xml</dc:format><dc:type
         rdf:resource="http://purl.org/dc/dcmitype/StillImage" /></cc:Work></rdf:RDF></metadata><defs
   id="defs89" /><sodipodi:namedview
   inkscape:document-rotation="0"
   inkscape:pageshadow="0"
   inkscape:current-layer="text6964"
   inkscape:window-maximized="1"
   inkscape:window-y="-8"
   inkscape:window-x="-8"
   inkscape:window-height="1017"
   inkscape:window-width="1920"
   inkscape:cy="12.689303"
   inkscape:cx="304.54327"
   inkscape:zoom="1.615534"
   showgrid="true"
   inkscape:deskcolor="#d1d1d1"
   inkscape:pagecheckerboard="0"
   inkscape:pageopacity="0.0"
   inkscape:showpageshadow="2"
   borderopacity="0.25"
   bordercolor="#000000"
   pagecolor="#ffffff"
   id="namedview87"><inkscape:grid
     id="grid195"
     type="xygrid" /></sodipodi:namedview>
    
<g
   style="font-size:113.297px;line-height:1.25;fill:#ff8eff;stroke-width:2.83242"
   id="text6964"
   transform="scale(0.903722,1.106535)"
   aria-label="Aozorapick"><g
     style="font-style:normal;font-weight:normal;font-size:162.905px;line-height:1.25;font-family:sans-serif;fill:#000000;fill-opacity:1;stroke:none;stroke-width:2.40321"
     id="text42"
     transform="scale(1.0317972,0.96918269)"
     aria-label="AZPick"><path
       id="path917"
       style="fill:#ddebff;fill-opacity:1"
       d="M 56.527765,118.00502 H 20.85157 q -8.633965,0 -13.8469251,-5.21296 Q 1.791685,107.5791 1.791685,99.759662 q 0,-6.027485 3.2581,-11.892064 4.0726249,-7.16782 34.53586,-61.25228 8.959775,-15.96469 23.13251,-15.96469 16.127594,0 25.087369,15.801785 l 35.676196,63.20714 q 2.28067,4.072624 2.28067,8.796869 0,11.566258 -10.26302,17.105028 -4.23553,2.28067 -8.95977,2.28067 -11.729161,0 -16.942121,-10.26302 L 66.46497,63.106038 q -0.814525,-1.62905 -2.93229,-1.62905 -1.95486,0 -2.60648,1.466145 -1.95486,3.746815 -6.679105,12.05497 -0.65162,1.30324 -0.65162,2.28067 0,2.443575 2.93229,2.443575 8.959775,0 14.009829,5.53877 5.050055,5.375865 5.050055,13.521114 0,7.982348 -5.53877,13.684018 -5.538769,5.53877 -13.521114,5.53877 z" /><path
       id="path919"
       style="fill:#ddebff;fill-opacity:1"
       d="m 217.18519,79.885253 q 7.81944,0 13.35821,5.701675 5.70167,5.53877 5.70167,13.358209 0,7.819443 -5.70167,13.521113 -5.53877,5.53877 -13.35821,5.53877 h -68.74591 q -12.70659,0 -17.59374,-11.72916 -1.46615,-3.58391 -1.46615,-7.330723 0,-7.982344 5.53877,-13.358209 L 168.8024,52.191403 q 0.81453,-0.97743 0.48872,-1.791955 -0.16291,-0.814525 -1.14034,-1.140335 h -19.7115 q -7.98235,0 -13.52112,-5.53877 -5.53877,-5.53877 -5.53877,-13.35821 0,-7.982345 5.53877,-13.521115 5.53877,-5.53877 13.52112,-5.53877 h 68.74591 q 12.70659,0 17.59374,11.72916 1.46614,3.421005 1.46614,7.330725 0,7.81944 -5.53877,13.35821 l -33.88424,33.395525 q -0.81452,0.814525 -0.65162,1.791955 0.32581,0.814525 1.30324,0.97743 z" /><path
       id="path921"
       style="fill:#e9f8ff;fill-opacity:1"
       d="m 306.84913,11.302248 q 17.10502,0 29.3229,12.217875 12.21787,12.05497 12.21787,29.159995 0,17.430835 -11.89206,29.485805 -11.72916,11.892064 -28.67128,11.892064 -7.98235,0 -13.52112,-5.538769 -5.53877,-5.53877 -5.53877,-13.521115 0,-7.982345 5.53877,-13.521115 5.53877,-5.53877 13.52112,-5.53877 3.09519,0 3.09519,-3.421005 0,-3.095195 -3.09519,-3.095195 h -15.47598 q -4.88715,0 -8.47106,3.58391 -3.58391,3.421005 -3.58391,8.14525 V 100.9 q 0,7.81944 -5.70167,13.52111 -5.53877,5.53877 -13.52112,5.53877 -7.81944,0 -13.52111,-5.53877 -5.53877,-5.70167 -5.53877,-13.52111 V 30.362133 q 0,-7.81944 5.53877,-13.35821 5.70167,-5.701675 13.52111,-5.701675 z" /><path
       id="path923"
       style="fill:#e9f8ff;fill-opacity:1"
       d="m 366.64542,42.254198 q -6.84201,0 -11.72916,-4.724245 -4.72425,-4.88715 -4.72425,-11.72916 0,-6.84201 4.72425,-11.566255 4.88715,-4.8871499 11.72916,-4.8871499 6.84201,0 11.72916,4.8871499 4.88715,4.724245 4.88715,11.566255 0,6.84201 -4.88715,11.72916 -4.88715,4.724245 -11.72916,4.724245 z m 0.1629,3.2581 q 6.84201,0 11.56626,4.88715 4.88715,4.88715 4.88715,11.72916 v 40.237532 q 0,6.84201 -4.88715,11.72916 -4.72425,4.72425 -11.56626,4.72425 -6.84201,0 -11.72916,-4.72425 -4.88715,-4.88715 -4.88715,-11.72916 V 62.128608 q 0,-6.84201 4.88715,-11.72916 4.88715,-4.88715 11.72916,-4.88715 z" /><path
       id="path925"
       style="fill:#e9f8ff;fill-opacity:1"
       d="m 430.20894,120.12279 q -16.77921,0 -28.67128,-11.89207 -11.89206,-11.892063 -11.89206,-28.671277 0,-16.94212 11.89206,-28.67128 11.89207,-11.892065 28.67128,-11.892065 15.15017,0 26.55352,9.7743 5.70167,4.88715 5.70167,12.543685 0,6.027485 -3.90972,10.75173 -5.05005,5.701675 -12.54368,5.701675 -6.19039,0 -10.75173,-4.072625 -2.11777,-1.791955 -5.05006,-1.791955 -3.09519,0 -5.37586,2.28067 -2.11777,2.117765 -2.11777,5.375865 0,3.095195 2.11777,5.375865 2.28067,2.28067 5.37586,2.28067 2.93229,0 5.05006,-1.95486 4.56134,-3.90972 10.75173,-3.90972 7.49363,0 12.54368,5.701675 3.90972,4.56134 3.90972,10.751729 0,7.493628 -5.70167,12.543688 -11.40335,9.7743 -26.55352,9.7743 z" /><path
       id="path927"
       style="fill:#e9f8ff;fill-opacity:1"
       d="m 531.92275,79.396538 q 0.48871,0.32581 11.56625,11.240445 5.05006,4.887149 5.05006,11.892067 0,6.5162 -4.72425,11.56625 -4.72424,4.88715 -11.72916,4.88715 -6.6791,0 -11.56625,-4.72424 L 504.2289,98.456422 q -0.65162,-0.488715 -1.30324,-0.488715 -1.30324,0 -1.30324,4.887153 0,6.84201 -4.88715,11.72916 -4.88715,4.72424 -11.72916,4.72424 -6.84201,0 -11.72916,-4.72424 -4.72425,-4.88715 -4.72425,-11.72916 V 26.941128 q 0,-6.84201 4.72425,-11.566255 4.88715,-4.88715 11.72916,-4.88715 6.84201,0 11.72916,4.88715 4.88715,4.724245 4.88715,11.566255 v 25.41318 q 0,1.62905 1.14033,2.117765 0.97743,0.488715 2.11777,-0.32581 0.65162,-0.32581 19.5486,-12.869495 4.23553,-2.60648 9.12268,-2.60648 8.95977,0 13.84692,7.330725 2.60648,4.23553 2.60648,9.12268 0,8.959775 -7.33072,13.846925 l -10.26302,6.5162 v 0.162905 l -0.32581,0.162905 q -2.28067,1.466145 -0.1629,3.58391 z" /></g></g></svg>
