<?xml version="1.0" encoding="UTF-8" standalone="no"?>
<svg
   width="515px"
   height="136px"
   version="1.1"
   xml:space="preserve"
   style="fill-rule:evenodd;clip-rule:evenodd;stroke-linejoin:round;stroke-miterlimit:2;"
   id="svg85"
   sodipodi:docname="misskey.svg"
   inkscape:version="1.1.2 (0a00cf5339, 2022-02-04)"
   xmlns:inkscape="http://www.inkscape.org/namespaces/inkscape"
   xmlns:sodipodi="http://sodipodi.sourceforge.net/DTD/sodipodi-0.dtd"
   xmlns="http://www.w3.org/2000/svg"
   xmlns:svg="http://www.w3.org/2000/svg"><defs
   id="defs89" /><sodipodi:namedview
   id="namedview87"
   pagecolor="#ffffff"
   bordercolor="#000000"
   borderopacity="0.25"
   inkscape:showpageshadow="2"
   inkscape:pageopacity="0.0"
   inkscape:pagecheckerboard="0"
   inkscape:deskcolor="#d1d1d1"
   showgrid="true"
   inkscape:zoom="1.615534"
   inkscape:cx="340.13521"
   inkscape:cy="60.970552"
   inkscape:window-width="1846"
   inkscape:window-height="1016"
   inkscape:window-x="0"
   inkscape:window-y="0"
   inkscape:window-maximized="1"
   inkscape:current-layer="text6964"
   inkscape:pageshadow="0"><inkscape:grid
     type="xygrid"
     id="grid195" /></sodipodi:namedview>
    
<g
   aria-label="Aozorapick"
   transform="scale(0.903722,1.106535)"
   id="text6964"
   style="font-size:113.297px;line-height:1.25;fill:#ff8eff;stroke-width:2.83242"><path
     d="M 39.652819,84.739708 H 14.840776 q -6.0047405,0 -9.6302444,-3.625503 -3.6255039,-3.625504 -3.6255039,-9.06376 0,-4.191989 2.2659399,-8.270681 2.832425,-4.985068 24.0189634,-42.599671 6.231335,-11.103106 16.088174,-11.103106 11.216402,0 17.447737,10.989809 l 24.812043,43.959235 q 1.586157,2.832425 1.586157,6.118038 0,8.044087 -7.13771,11.896184 -2.945722,1.586158 -6.231335,1.586158 -8.157384,0 -11.782888,-7.13771 L 46.563936,46.55862 q -0.566485,-1.13297 -2.039346,-1.13297 -1.359564,0 -1.812752,1.019673 -1.359564,2.605831 -4.645177,8.383978 -0.453188,0.906376 -0.453188,1.586158 0,1.699455 2.039346,1.699455 6.231335,0 9.743541,3.852098 3.512207,3.738801 3.512207,9.403651 0,5.551553 -3.852098,9.516948 -3.852097,3.852097 -9.40365,3.852097 z"
     style="fill:#00b3f6"
     id="path3082" /><path
     d="m 118.50736,86.099272 q -11.55629,0 -19.826975,-8.27068 -8.270681,-8.270681 -8.270681,-19.940272 0,-11.556294 8.270681,-19.826974 8.270685,-8.270681 19.826975,-8.270681 11.66959,0 19.94027,8.270681 8.27068,8.27068 8.27068,19.826974 0,11.669591 -8.27068,19.940272 -8.27068,8.27068 -19.94027,8.27068 z m 0,-33.309317 q -2.15264,0 -3.6255,1.472861 -1.47287,1.472861 -1.47287,3.625504 0,2.152643 1.47287,3.738801 1.47286,1.472861 3.6255,1.472861 2.15264,0 3.6255,-1.472861 1.58616,-1.586158 1.58616,-3.738801 0,-2.152643 -1.58616,-3.625504 -1.47286,-1.472861 -3.6255,-1.472861 z"
     style="fill:#00b3f6"
     id="path3084" /><path
     d="m 192.26354,63.55317 q 4.41858,0 7.4776,3.059019 3.05902,3.059019 3.05902,7.477602 0,4.305286 -3.05902,7.364305 -3.05902,3.059018 -7.4776,3.059018 h -31.72316 q -4.30529,0 -7.36431,-3.059018 -3.05901,-3.059019 -3.05901,-7.364305 0,-4.305286 3.05901,-7.364305 l 12.68927,-12.915858 q 0.45319,-0.453188 0.33989,-0.906376 -0.22659,-0.453188 -1.01967,-0.453188 h -4.64518 q -4.30529,0 -7.36431,-3.059019 -3.05901,-3.059019 -3.05901,-7.364304 0,-4.305286 3.05901,-7.364305 3.05902,-3.059019 7.36431,-3.059019 h 31.72316 q 4.41858,0 7.4776,3.059019 3.05902,3.059019 3.05902,7.364305 0,4.305285 -3.05902,7.364304 l -12.57597,12.689264 q -0.45318,0.453188 -0.33989,1.019673 0.1133,0.453188 0.79308,0.453188 z"
     style="fill:#00b3f6"
     id="path3086" /><path
     d="m 234.97645,86.099272 q -11.5563,0 -19.82698,-8.27068 -8.27068,-8.270681 -8.27068,-19.940272 0,-11.556294 8.27068,-19.826974 8.27068,-8.270681 19.82698,-8.270681 11.66959,0 19.94027,8.270681 8.27068,8.27068 8.27068,19.826974 0,11.669591 -8.27068,19.940272 -8.27068,8.27068 -19.94027,8.27068 z m 0,-33.309317 q -2.15265,0 -3.62551,1.472861 -1.47286,1.472861 -1.47286,3.625504 0,2.152643 1.47286,3.738801 1.47286,1.472861 3.62551,1.472861 2.15264,0 3.6255,-1.472861 1.58616,-1.586158 1.58616,-3.738801 0,-2.152643 -1.58616,-3.625504 -1.47286,-1.472861 -3.6255,-1.472861 z"
     style="fill:#00b3f6"
     id="path3088" /><path
     d="m 294.79708,30.130556 q 4.75847,0 8.04409,3.39891 3.39891,3.39891 3.39891,8.157384 0,4.758473 -3.39891,8.157383 -3.28562,3.285613 -8.04409,3.285613 -2.37924,0 -3.8521,1.699455 -1.35956,1.586158 -1.35956,3.965395 v 15.748283 q 0,4.758474 -3.39891,8.157383 -3.39891,3.39891 -8.15739,3.39891 -4.75847,0 -8.15738,-3.39891 -3.28561,-3.398909 -3.28561,-8.157383 V 41.913444 q 0,-4.758474 3.28561,-8.157384 3.39891,-3.39891 8.15738,-3.39891 1.35957,0 2.94572,0.453188 4.0787,0.906376 7.13772,0.226594 3.39891,-0.906376 6.68452,-0.906376 z"
     style="fill:#00b3f6"
     id="path3090" /><path
     d="m 353.37146,31.150229 q 4.75847,0 8.15738,3.39891 3.39891,3.285613 3.39891,8.044087 v 30.590189 q 0,4.758474 -3.39891,8.157384 -3.39891,3.398909 -8.15738,3.398909 -2.03935,0 -3.6255,-0.679782 -1.35957,-0.453188 -2.71913,0 -4.98507,1.926049 -10.31003,1.926049 -11.55629,0 -19.82697,-8.157383 -8.27068,-8.270681 -8.27068,-19.940272 0,-11.669591 8.27068,-19.826974 8.27068,-8.270681 19.82697,-8.270681 5.66485,0 10.76322,2.152643 0.79308,0.339891 2.03934,-0.113297 1.92605,-0.679782 3.8521,-0.679782 z M 336.7168,63.099982 q 2.15264,0 3.62551,-1.472861 1.58615,-1.586158 1.58615,-3.738801 0,-2.152643 -1.58615,-3.625504 -1.47287,-1.472861 -3.62551,-1.472861 -2.15264,0 -3.6255,1.472861 -1.47286,1.472861 -1.47286,3.625504 0,2.152643 1.47286,3.738801 1.47286,1.472861 3.6255,1.472861 z"
     style="fill:#00b3f6"
     id="path3092" /><path
     d="m 425.54161,57.88832 q 0,11.556294 -8.27068,19.826975 -8.27068,8.27068 -19.94027,8.27068 -2.03934,0 -3.6255,-0.226594 -1.47286,-0.226594 -1.47286,1.13297 v 10.423324 q 0,4.758475 -3.39891,8.044085 -3.39891,3.39891 -8.15739,3.39891 -4.75847,0 -8.15738,-3.39891 -3.28561,-3.28561 -3.28561,-8.044085 V 41.913444 q 0,-4.758474 3.28561,-8.044087 3.39891,-3.39891 8.15738,-3.39891 0.90638,0 3.9654,0.679782 2.37924,0.453188 3.96539,-0.113297 4.19199,-1.359564 8.72387,-1.359564 11.66959,0 19.94027,8.270681 8.27068,8.27068 8.27068,19.940271 z m -22.99929,0 q 0,-2.152643 -1.58615,-3.625504 -1.47286,-1.586158 -3.62551,-1.586158 -2.15264,0 -3.6255,1.586158 -1.47286,1.472861 -1.47286,3.625504 0,2.152643 1.47286,3.625504 1.47286,1.472861 3.6255,1.472861 2.15265,0 3.62551,-1.472861 1.58615,-1.472861 1.58615,-3.625504 z"
     style="fill:#00e5ff"
     id="path3094" /><path
     d="m 440.27012,32.056605 q -4.75847,0 -8.15738,-3.285613 -3.28562,-3.39891 -3.28562,-8.157384 0,-4.758474 3.28562,-8.044087 3.39891,-3.3989096 8.15738,-3.3989096 4.75847,0 8.15738,3.3989096 3.39891,3.285613 3.39891,8.044087 0,4.758474 -3.39891,8.157384 -3.39891,3.285613 -8.15738,3.285613 z m 0.1133,2.26594 q 4.75847,0 8.04408,3.39891 3.39891,3.39891 3.39891,8.157383 v 27.984359 q 0,4.758474 -3.39891,8.157384 -3.28561,3.285612 -8.04408,3.285612 -4.75848,0 -8.15739,-3.285612 -3.39891,-3.39891 -3.39891,-8.157384 V 45.878838 q 0,-4.758473 3.39891,-8.157383 3.39891,-3.39891 8.15739,-3.39891 z"
     style="fill:#00e5ff"
     id="path3096" /><path
     d="m 484.56905,86.212569 q -11.66959,0 -19.94027,-8.27068 -8.27068,-8.270681 -8.27068,-19.940272 0,-11.782888 8.27068,-19.940271 8.27068,-8.270681 19.94027,-8.270681 10.53662,0 18.46741,6.79782 3.9654,3.39891 3.9654,8.723868 0,4.191989 -2.71913,7.477602 -3.51221,3.965395 -8.72387,3.965395 -4.30529,0 -7.4776,-2.832425 -1.47286,-1.246267 -3.51221,-1.246267 -2.15264,0 -3.7388,1.586158 -1.47286,1.472861 -1.47286,3.738801 0,2.152643 1.47286,3.738801 1.58616,1.586158 3.7388,1.586158 2.03935,0 3.51221,-1.359564 3.17231,-2.719128 7.4776,-2.719128 5.21166,0 8.72387,3.965395 2.71913,3.172316 2.71913,7.477602 0,5.211662 -3.9654,8.723869 -7.93079,6.797819 -18.46741,6.797819 z"
     style="fill:#00e5ff"
     id="path3098" /><path
     d="m 555.26629,57.88832 q 0.33989,0.226594 8.04409,7.817493 3.51221,3.39891 3.51221,8.270681 0,4.53188 -3.28562,8.044087 -3.28561,3.398909 -8.15738,3.398909 -4.64518,0 -8.04409,-3.285612 L 536.0058,71.144069 q -0.45318,-0.339891 -0.90637,-0.339891 -0.90638,0 -0.90638,3.39891 0,4.758474 -3.39891,8.157383 -3.39891,3.285613 -8.15738,3.285613 -4.75848,0 -8.15739,-3.285613 -3.28561,-3.398909 -3.28561,-8.157383 V 21.406687 q 0,-4.758474 3.28561,-8.044087 3.39891,-3.3989096 8.15739,-3.3989096 4.75847,0 8.15738,3.3989096 3.39891,3.285613 3.39891,8.044087 v 17.674332 q 0,1.13297 0.79308,1.472861 0.67978,0.339891 1.47286,-0.226594 0.45319,-0.226594 13.59564,-8.950463 2.94572,-1.812752 6.34463,-1.812752 6.23134,0 9.63025,5.098365 1.81275,2.945722 1.81275,6.344632 0,6.231334 -5.09836,9.630244 l -7.13772,4.53188 v 0.113297 l -0.22659,0.113297 q -1.58616,1.019673 -0.1133,2.492534 z"
     style="fill:#00e5ff"
     id="path3100" /></g></svg>
