<?xml version="1.0" encoding="UTF-8" standalone="no"?>
<svg
   width="515px"
   height="136px"
   version="1.1"
   xml:space="preserve"
   style="fill-rule:evenodd;clip-rule:evenodd;stroke-linejoin:round;stroke-miterlimit:2;"
   id="svg85"
   sodipodi:docname="misskey.svg"
   inkscape:version="1.2.2 (732a01da63, 2022-12-09)"
   xmlns:inkscape="http://www.inkscape.org/namespaces/inkscape"
   xmlns:sodipodi="http://sodipodi.sourceforge.net/DTD/sodipodi-0.dtd"
   xmlns="http://www.w3.org/2000/svg"
   xmlns:svg="http://www.w3.org/2000/svg"><defs
   id="defs89" /><sodipodi:namedview
   id="namedview87"
   pagecolor="#ffffff"
   bordercolor="#000000"
   borderopacity="0.25"
   inkscape:showpageshadow="2"
   inkscape:pageopacity="0.0"
   inkscape:pagecheckerboard="0"
   inkscape:deskcolor="#d1d1d1"
   showgrid="true"
   inkscape:zoom="1.615534"
   inkscape:cx="341.0637"
   inkscape:cy="12.689303"
   inkscape:window-width="1920"
   inkscape:window-height="1001"
   inkscape:window-x="-9"
   inkscape:window-y="-9"
   inkscape:window-maximized="1"
   inkscape:current-layer="text6964"
   inkscape:pageshadow="0"><inkscape:grid
     type="xygrid"
     id="grid195" /></sodipodi:namedview>
    
<g
   aria-label="Aozorapick"
   transform="scale(0.903722,1.106535)"
   id="text6964"
   style="font-size:113.297px;line-height:1.25;fill:#ff8eff;stroke-width:2.83242"><g
     aria-label="AZ"
     transform="scale(1.0559322,0.94703054)"
     id="text206"
     style="font-size:164.272px;fill:#ffffff;stroke-width:4.10682"><path
       d="m 83.704469,6.3676442 q 0.721898,0.5614766 0.721898,3.9303358 0,3.449071 -0.721898,5.213711 l 1.042742,3.36886 q 2.646961,9.464891 5.213711,15.560922 3.208438,8.181516 6.336664,17.566196 7.138774,21.576742 14.839024,36.977242 7.78046,15.320289 14.19734,21.576739 4.01054,3.93034 4.97307,5.45435 1.04275,1.44379 1.04275,3.44907 0,3.52928 -2.40633,5.93561 -2.32612,2.48654 -5.61477,2.48654 -10.267,0 -24.865388,-32.325012 -5.855399,-12.753539 -7.058563,-12.753539 -3.850125,0 -16.603664,2.326117 -12.673329,2.326118 -23.180962,5.454344 -6.01582,1.844852 -7.620039,1.844852 -2.005273,0 -4.170969,-2.005274 -0.401055,-0.320843 -0.962531,-0.320843 -1.764641,0 -7.620039,10.427425 -9.625313,17.24535 -12.192063,20.61421 -2.486539,3.28865 -5.534555,3.28865 -2.165695,0 -5.2137109,-2.56675 -3.0480156,-2.48654 -3.0480156,-5.1335 0,-2.56675 2.8875938,-6.89814 Q 11.033358,105.42815 19.936772,92.193349 35.818538,68.691544 46.727226,48.077333 63.972578,15.271058 68.624812,9.4156599 q 4.652235,-5.9356095 7.138774,-5.9356095 5.293922,0 7.940883,2.8875938 z M 88.597336,70.135341 Q 85.789953,63.718466 80.335609,46.633536 74.4,28.425652 72.795781,24.495316 68.384179,33.799785 59.159921,50.884715 L 44.641742,78.397067 q 1.684429,-1.283375 8.903414,-2.085484 5.534555,-0.561477 9.625312,-1.443797 21.897587,-4.411601 25.426868,-4.732445 z"
       style="font-family:'Segoe Print';-inkscape-font-specification:'Segoe Print'"
       id="path169" /><path
       d="m 256.79967,15.672113 q -0.24063,0.721899 -3.44907,2.646961 -2.48654,1.443797 -6.17624,6.015821 -2.80738,3.44907 -6.41687,7.299195 l -9.78574,11.06911 q -17.40577,19.972523 -27.83319,30.079102 -3.36886,3.288648 -7.2992,7.379406 l -23.98307,24.303912 q -0.16042,1.52401 2.00527,1.52401 7.05857,0 32.16459,-2.48654 4.81266,-0.48126 8.18152,-0.48126 6.01582,0 9.94615,-0.32085 3.93034,-0.32084 6.81793,-0.32084 21.01527,0 21.01527,9.38468 0,7.78046 -5.8554,7.78046 -2.80738,0 -4.73245,-0.48127 -10.267,-2.56675 -21.33611,-2.56675 -5.61476,0 -33.7688,1.76464 l -5.1335,0.32085 q -16.44324,1.04274 -28.07383,4.17097 -6.73772,1.84485 -7.86067,1.84485 -5.1335,0 -5.1335,-5.8554 0,-5.69498 3.20844,-8.10131 16.52345,-12.031636 47.80571,-43.394113 31.28227,-31.362477 41.7899,-45.800446 l -1.92506,-0.08021 q -6.73772,-0.240633 -26.06855,1.604219 -4.17097,0.401054 -8.66279,0.721898 -4.33139,0.320844 -7.29919,0.641688 -10.34721,1.122953 -16.8443,1.122953 -9.46489,0 -13.47544,-2.727172 -3.93033,-2.727172 -3.93033,-6.176243 0,-2.085484 2.2459,-4.812656 2.24591,-2.7271718 3.6095,-2.7271718 0.96253,0 3.52928,0.8823203 2.72717,1.0427425 4.57202,1.0427425 7.37941,0 13.47544,0.240633 6.09603,0.160421 16.20261,-0.641688 9.94616,-0.8021094 19.25062,-1.1229531 12.75354,-0.3208438 26.14877,-2.8073829 6.89814,-1.283375 10.50763,-1.283375 3.68971,0 3.68971,4.973078 0,3.689703 -1.12296,5.374133 z"
       style="font-family:'Segoe Print';-inkscape-font-specification:'Segoe Print'"
       id="path171" /></g><g
     aria-label="Pick"
     transform="scale(0.93861563,1.0653988)"
     id="text416"
     style="font-size:162.509px;font-family:'Segoe Print';-inkscape-font-specification:'Segoe Print';fill:#ffffff;stroke-width:4.06269"><path
       d="m 360.94833,4.1015433 q 17.06344,0 29.25162,12.1881747 12.18817,12.025667 12.18817,29.089112 0,17.388463 -11.86315,29.414129 -11.70065,11.863158 -28.60159,11.863158 -7.96294,0 -13.48825,-5.525306 -5.5253,-5.525307 -5.5253,-13.488248 0,-7.962941 5.5253,-13.488247 5.52531,-5.525306 13.48825,-5.525306 3.08767,0 3.08767,-3.412689 0,-3.087671 -3.08767,-3.087671 h -15.43835 q -4.87527,0 -8.45047,3.575198 -3.5752,3.412689 -3.5752,8.12545 v 39.652197 q 0,7.800435 -5.68781,13.488245 -5.52531,5.52531 -13.48825,5.52531 -7.80043,0 -13.48825,-5.52531 -5.52531,-5.68781 -5.52531,-13.488245 V 23.115097 q 0,-7.800433 5.52531,-13.3257386 5.68782,-5.6878151 13.48825,-5.6878151 z"
       style="font-family:'OTADESIGN Rounded';-inkscape-font-specification:'OTADESIGN Rounded'"
       id="path174" /><path
       d="m 420.58906,34.978254 q -6.82538,0 -11.70065,-4.712761 -4.71276,-4.87527 -4.71276,-11.700648 0,-6.825379 4.71276,-11.5381397 4.87527,-4.8752701 11.70065,-4.8752701 6.82538,0 11.70065,4.8752701 4.87527,4.7127607 4.87527,11.5381397 0,6.825378 -4.87527,11.700648 -4.87527,4.712761 -11.70065,4.712761 z m 0.16251,3.25018 q 6.82538,0 11.53814,4.87527 4.87527,4.87527 4.87527,11.700648 v 40.139724 q 0,6.825374 -4.87527,11.700644 -4.71276,4.71277 -11.53814,4.71277 -6.82538,0 -11.70065,-4.71277 -4.87527,-4.87527 -4.87527,-11.700644 V 54.804352 q 0,-6.825378 4.87527,-11.700648 4.87527,-4.87527 11.70065,-4.87527 z"
       style="font-family:'OTADESIGN Rounded';-inkscape-font-specification:'OTADESIGN Rounded'"
       id="path176" /><path
       d="m 484.13009,112.65756 q -16.73843,0 -28.60159,-11.86316 -11.86316,-11.863157 -11.86316,-28.601585 0,-16.900936 11.86316,-28.601584 11.86316,-11.863157 28.60159,-11.863157 15.11333,0 26.48896,9.75054 5.68782,4.87527 5.68782,12.513193 0,6.012833 -3.90022,10.725594 -5.03778,5.687815 -12.51319,5.687815 -6.17534,0 -10.7256,-4.062725 -2.11261,-1.787599 -5.03777,-1.787599 -3.08768,0 -5.3628,2.275126 -2.11262,2.112617 -2.11262,5.362797 0,3.087671 2.11262,5.362797 2.27512,2.275127 5.3628,2.275127 2.92516,0 5.03777,-1.950109 4.55026,-3.900216 10.7256,-3.900216 7.47541,0 12.51319,5.687816 3.90022,4.550252 3.90022,10.725594 0,7.475414 -5.68782,12.513196 -11.37563,9.75054 -26.48896,9.75054 z"
       style="font-family:'OTADESIGN Rounded';-inkscape-font-specification:'OTADESIGN Rounded'"
       id="path178" /><path
       d="m 585.53558,72.030306 q 0.48753,0.325018 11.53814,11.213122 5.03778,4.87527 5.03778,11.863157 0,6.500355 -4.71276,11.538135 -4.71276,4.87527 -11.70065,4.87527 -6.66287,0 -11.53814,-4.71276 l -16.2509,-15.76337 q -0.65003,-0.487527 -1.30007,-0.487527 -1.30007,0 -1.30007,4.87527 0,6.825377 -4.87527,11.700647 -4.87527,4.71276 -11.70065,4.71276 -6.82538,0 -11.70065,-4.71276 -4.71276,-4.87527 -4.71276,-11.700647 V 19.702408 q 0,-6.825379 4.71276,-11.5381397 4.87527,-4.87527 11.70065,-4.87527 6.82538,0 11.70065,4.87527 4.87527,4.7127607 4.87527,11.5381397 v 25.351404 q 0,1.62509 1.13756,2.112617 0.97505,0.487527 2.11262,-0.325018 0.65003,-0.325018 19.50108,-12.838211 4.22523,-2.600144 9.1005,-2.600144 8.938,0 13.81327,7.312905 2.60014,4.225234 2.60014,9.100504 0,8.937995 -7.3129,13.813265 l -10.23807,6.50036 v 0.162509 l -0.32502,0.162509 q -2.27512,1.462581 -0.16251,3.575198 z"
       style="font-family:'OTADESIGN Rounded';-inkscape-font-specification:'OTADESIGN Rounded'"
       id="path180" /></g></g></svg>
